PSF_US_stride4.mot
nRows=143
nColumns=3

name PSF_US_stride4.mot
datacolumns 3
datarows 143
range 1.820000 2.530000
endheader
time	soleus_l	med_gas_l
        1.8200000000	       34.2058670860	       35.9800093441	
        1.8250000000	       34.0795273634	       35.8106905079	
        1.8300000000	       33.9272870305	       35.3767365834	
        1.8350000000	       33.8445130624	       34.7552543303	
        1.8400000000	       33.8520912455	       34.0108082983	
        1.8450000000	       33.9229189435	       33.3824822419	
        1.8500000000	       34.0388387877	       32.9620299098	
        1.8550000000	       34.2193175970	       32.5968306864	
        1.8600000000	       34.4163158311	       32.5400241213	
        1.8650000000	       34.5649411075	       32.6112926040	
        1.8700000000	       34.6243003649	       32.8844904379	
        1.8750000000	       34.5966402224	       33.1453504120	
        1.8800000000	       34.5089332621	       33.2779273049	
        1.8850000000	       34.3500351815	       33.2944441093	
        1.8900000000	       34.1024021879	       33.1749574434	
        1.8950000000	       33.8433515370	       32.8532692484	
        1.9000000000	       33.6050950136	       32.4206009571	
        1.9050000000	       33.4250398328	       31.9611520835	
        1.9100000000	       33.3322039714	       31.6252046593	
        1.9150000000	       33.2821232042	       31.3706687506	
        1.9200000000	       33.2527336539	       31.0997217239	
        1.9250000000	       33.2346829335	       30.9221023343	
        1.9300000000	       33.2010174740	       30.8037843667	
        1.9350000000	       33.1241003284	       30.6962038598	
        1.9400000000	       32.9927201945	       30.5714284219	
        1.9450000000	       32.8637399408	       30.4500882012	
        1.9500000000	       32.6759371713	       30.2580370097	
        1.9550000000	       32.4460584956	       29.9959723326	
        1.9600000000	       32.2305594159	       29.7255156030	
        1.9650000000	       32.0343664846	       29.4708105458	
        1.9700000000	       31.8283727645	       29.2309385613	
        1.9750000000	       31.6540980277	       29.0732834525	
        1.9800000000	       31.4543733940	       28.9289804388	
        1.9850000000	       31.1381313249	       28.7472941674	
        1.9900000000	       30.7106135204	       28.5258285729	
        1.9950000000	       30.1627253628	       28.2540988618	
        2.0000000000	       29.6420140008	       28.0078370828	
        2.0050000000	       29.1653661348	       27.7973848193	
        2.0100000000	       28.5021589190	       27.5424128976	
        2.0150000000	       27.8693664843	       27.3570357283	
        2.0200000000	       27.2880060649	       27.2430710225	
        2.0250000000	       26.7585037782	       27.1692219594	
        2.0300000000	       26.3088755509	       27.1066580562	
        2.0350000000	       25.9956251538	       27.0349955269	
        2.0400000000	       25.6050124137	       26.8997871496	
        2.0450000000	       25.1467857512	       26.6739597406	
        2.0500000000	       24.6955906310	       26.4050878073	
        2.0550000000	       24.1596075700	       26.0740459702	
        2.0600000000	       23.6344451039	       25.7676678897	
        2.0650000000	       23.2320755711	       25.5531184056	
        2.0700000000	       22.8737080440	       25.3760089342	
        2.0750000000	       22.4739467349	       25.1910319009	
        2.0800000000	       22.1971013675	       25.0596269080	
        2.0850000000	       22.0506302913	       24.9638807807	
        2.0900000000	       22.0418948256	       24.9134363399	
        2.0950000000	       22.1073789284	       24.9031163368	
        2.1000000000	       22.2310029619	       24.9334286572	
        2.1050000000	       22.4313802535	       25.0219515918	
        2.1100000000	       22.6982441674	       25.1963790780	
        2.1150000000	       23.0088897606	       25.4506591675	
        2.1200000000	       23.3504079096	       25.7543555723	
        2.1250000000	       23.6440983685	       26.0091724897	
        2.1300000000	       24.0336958520	       26.3110729628	
        2.1350000000	       24.5336958083	       26.6338135437	
        2.1400000000	       25.0790350503	       26.9097852389	
        2.1450000000	       25.6579148134	       27.1401413504	
        2.1500000000	       26.2603428039	       27.3523790159	
        2.1550000000	       26.6963758843	       27.5161427717	
        2.1600000000	       27.0787265654	       27.6807510305	
        2.1650000000	       27.5179780500	       27.9187859123	
        2.1700000000	       27.8520536504	       28.1512054593	
        2.1750000000	       28.0914443934	       28.3481660146	
        2.1800000000	       28.2623522657	       28.4845190593	
        2.1850000000	       28.3876630628	       28.5580033317	
        2.1900000000	       28.4855004805	       28.5918473827	
        2.1950000000	       28.6507272748	       28.6397278720	
        2.2000000000	       28.8903011571	       28.7191884386	
        2.2050000000	       29.2078364331	       28.8494936864	
        2.2100000000	       29.6154037646	       29.0261727026	
        2.2150000000	       30.0710023140	       29.1993770307	
        2.2200000000	       30.4709757393	       29.3112605061	
        2.2250000000	       30.9441156172	       29.3815625380	
        2.2300000000	       31.5776277998	       29.4117958190	
        2.2350000000	       32.2306154042	       29.3877289191	
        2.2400000000	       32.9347584691	       29.3479603278	
        2.2450000000	       33.4711646791	       29.3448447956	
        2.2500000000	       33.9420295117	       29.3515211389	
        2.2550000000	       34.4566443075	       29.4231336732	
        2.2600000000	       34.8121764469	       29.5323109252	
        2.2650000000	       35.0141000497	       29.6596301985	
        2.2700000000	       35.1007219099	       29.7877872947	
        2.2750000000	       35.1354466472	       29.8906699185	
        2.2800000000	       35.1536945454	       29.9603410018	
        2.2850000000	       35.2143437501	       30.0405485201	
        2.2900000000	       35.3527202533	       30.1247527609	
        2.2950000000	       35.5892943473	       30.2100617319	
        2.3000000000	       35.9164762070	       30.2964828812	
        2.3050000000	       36.3220984098	       30.3793089442	
        2.3100000000	       36.6647240785	       30.4328490859	
        2.3150000000	       37.0598166788	       30.4802543025	
        2.3200000000	       37.5511692558	       30.5266327583	
        2.3250000000	       38.0132077217	       30.5690307234	
        2.3300000000	       38.4145754184	       30.6269695097	
        2.3350000000	       38.7216944714	       30.7140334311	
        2.3400000000	       38.8826918829	       30.8107930421	
        2.3450000000	       38.9531599714	       30.9108480205	
        2.3500000000	       38.9365065525	       31.0547236342	
        2.3550000000	       38.8515251110	       31.1891467266	
        2.3600000000	       38.6961166867	       31.2929320645	
        2.3650000000	       38.5076223891	       31.3372361873	
        2.3700000000	       38.3127084473	       31.3413624882	
        2.3750000000	       38.1602794694	       31.2973709112	
        2.3800000000	       37.9544111857	       31.2138015879	
        2.3850000000	       37.6770046328	       31.0949685792	
        2.3900000000	       37.3540985418	       30.9975725036	
        2.3950000000	       36.9758091330	       30.9552658009	
        2.4000000000	       36.6894317904	       30.9938560580	
        2.4050000000	       36.3843572602	       31.1051494979	
        2.4100000000	       36.0389560748	       31.3816287601	
        2.4150000000	       35.7708778749	       31.7717138247	
        2.4200000000	       35.5469456182	       32.3166877639	
        2.4250000000	       35.3848061366	       32.9459107757	
        2.4300000000	       35.2880456119	       33.4847143169	
        2.4350000000	       35.2258924272	       33.9448066651	
        2.4400000000	       35.1677999793	       34.5361468344	
        2.4450000000	       35.1438000408	       35.0781784153	
        2.4500000000	       35.1446092841	       35.5672337051	
        2.4550000000	       35.1636719713	       36.0430753363	
        2.4600000000	       35.1867335990	       36.5175241239	
        2.4650000000	       35.1971126148	       36.9015613919	
        2.4700000000	       35.1919318624	       37.3947948096	
        2.4750000000	       35.1572593332	       37.9857384634	
        2.4800000000	       35.0830119519	       38.5454017777	
        2.4850000000	       34.9733248655	       39.0532276162	
        2.4900000000	       34.8407254844	       39.4556388546	
        2.4950000000	       34.7303540703	       39.6811634736	
        2.5000000000	       34.6243451412	       39.7969136244	
        2.5050000000	       34.4863746763	       39.8322272141	
        2.5100000000	       34.3785321626	       39.7031112737	
        2.5150000000	       34.2983420951	       39.4245815083	
        2.5200000000	       34.2641966398	       39.1021016642	
        2.5250000000	       34.2524439542	       38.7810371210	
        2.5300000000	       34.2762201029	       38.3441244887	
